<svg xmlns="http://www.w3.org/2000/svg" viewBox="0 0 104.77 74.5"><path d="M33,16.5c0,9.11-16.5,33-16.5,33S0,25.61,0,16.5a16.5,16.5,0,0,1,33,0Z" style="fill:#8f371c"/><path d="M36.25,74.5A16.5,16.5,0,0,1,19.75,58c0-9.11,16.5-33,16.5-33s16.5,23.89,16.5,33A16.5,16.5,0,0,1,36.25,74.5Z" style="fill:#b24d9d"/><circle cx="36.25" cy="26.5" r="15.47" style="fill:none;stroke:#231f20;stroke-linecap:round;stroke-miterlimit:10;stroke-width:2px"/><g style="isolation:isolate"><g style="isolation:isolate"><path d="M61,43.86V27.44h3.48V43.86Z" style="fill:#101623"/></g><g style="isolation:isolate"><path d="M80.44,43.86H77V30.34H72.5v-2.9H84.9v2.9H80.44Z" style="fill:#101623"/><path d="M104.77,43.86h-4l-4.3-6.92L95.05,38v5.86H91.57V27.44h3.48V35L96.42,33l4.44-5.58h3.87L99,34.71Z" style="fill:#101623"/></g></g></svg>