<svg class="logo-svg" data-name="Layer 1" xmlns="http://www.w3.org/2000/svg" viewBox="0 0 107.4 70.5"><defs>
<style>
	.st0{fill:#101623;}
	.st1{font-family:'OpenSans-Extrabold';}
	.st2{font-size:23px;}
	.st3{letter-spacing:5;}
	.st4{fill:none;stroke:#B86AAB;stroke-width:3;stroke-miterlimit:10;}
	.st5{fill:none;stroke:#839239;stroke-width:3;stroke-miterlimit:10;}
	.st6{fill:none;stroke:#8F371C;stroke-width:3;stroke-miterlimit:10;}
</style>
</defs>
<g>
	<!-- <text transform="matrix(1 0 0 1 32.72 42.92)" class="logo-svg-text st0 st1 st2 st3">ITK</text> -->
	<line class="st4" x1="77.6" y1="59.3" x2="0" y2="59.3"/>
	<line class="st5" x1="81.3" y1="66.1" x2="3.8" y2="66.1"/>
	<line class="st4" x1="92.4" y1="8.2" x2="15.1" y2="8.2"/>
	<line class="st5" x1="107.4" y1="1.5" x2="30.1" y2="1.5"/>
	<line class="st6" x1="11.2" y1="52.8" x2="40.6" y2="66.3"/>
	<polyline class="st6" points="47.1,15 88.8,15 104.6,34 88.9,52.6 10.5,52.6 	"/>
	<path class="st0" d="M40.3,70.5c2.1,0,3.7-1.7,3.7-3.7c0-2.1-1.7-3.7-3.7-3.7c-2.1,0-3.7,1.7-3.7,3.7c0,0,0,0,0,0
		C36.6,68.8,38.3,70.5,40.3,70.5C40.3,70.5,40.3,70.5,40.3,70.5"/>
	<path class="st0" d="M88,18.7c2,0,3.7-1.7,3.7-3.7S90,11.3,88,11.3c-2,0-3.7,1.7-3.7,3.7C84.3,17,85.9,18.7,88,18.7"/>
</g></svg>
