<svg class="logo-svg" data-name="Layer 1" xmlns="http://www.w3.org/2000/svg" viewBox="0 0 205.9 164.2"><defs><style>.cls-1{font-size:23px;font-family:OpenSans-Extrabold, Open Sans;font-weight:800;letter-spacing:0.22em;}.cls-1,.cls-6{fill:#101623;}.cls-2{letter-spacing:0.18em;}.cls-3,.cls-4,.cls-5{fill:none;stroke-miterlimit:10;stroke-width:3px;}.cls-3{stroke:#b86aab;}.cls-4{stroke:#839239;}.cls-5{stroke:#8f371c;}</style></defs><text class="logo-svg-text cls-1" transform="translate(81.99 89.03)">ITK</text><line class="cls-3" x1="126.86" y1="105.45" x2="49.27" y2="105.45"/><line class="cls-4" x1="130.61" y1="112.2" x2="53.02" y2="112.2"/><line class="cls-3" x1="141.63" y1="54.36" x2="64.41" y2="54.36"/><line class="cls-4" x1="156.63" y1="47.61" x2="79.41" y2="47.61"/><line class="cls-5" x1="60.43" y1="98.89" x2="89.88" y2="112.41"/><polyline class="cls-5" points="96.42 61.11 138.02 61.11 153.86 80.15 138.16 98.7 59.82 98.7"/><path class="cls-6" d="M89.58,116.59a3.72,3.72,0,1,0-3.71-3.72,3.71,3.71,0,0,0,3.71,3.72"/><path class="cls-6" d="M137.25,64.82a3.71,3.71,0,1,0-3.71-3.71,3.72,3.72,0,0,0,3.71,3.71"/></svg>