<svg height="56" viewBox="0 0 56 56" width="56" xmlns="http://www.w3.org/2000/svg"><path d="m15.5547 53.125h24.8906c4.8516 0 7.2656-2.461 7.2656-7.336v-21.2812c0-3.0234-.3281-4.336-2.2031-6.2578l-12.9375-13.1485c-1.7812-1.8281-3.2344-2.2265-5.8828-2.2265h-11.1328c-4.8281 0-7.2656 2.4844-7.2656 7.3594v35.5546c0 4.8985 2.4375 7.336 7.2656 7.336zm.1875-3.7735c-2.4141 0-3.6797-1.289-3.6797-3.6328v-35.414c0-2.3203 1.2656-3.6563 3.7031-3.6563h10.4062v13.6172c0 2.9531 1.5 4.4062 4.4063 4.4062h13.3594v21.0469c0 2.3438-1.2422 3.6328-3.6797 3.6328zm15.2578-28.2187c-.9141 0-1.2891-.375-1.2891-1.3125v-12.4453l13.5 13.7578zm5.625 9.9844h-17.7891c-.8437 0-1.4531.6328-1.4531 1.4297 0 .8203.6094 1.4531 1.4531 1.4531h17.7891c.8203 0 1.4531-.6328 1.4531-1.4531 0-.7969-.6328-1.4297-1.4531-1.4297zm0 8.1797h-17.7891c-.8437 0-1.4531.6562-1.4531 1.4765 0 .7969.6094 1.4063 1.4531 1.4063h17.7891c.8203 0 1.4531-.6094 1.4531-1.4063 0-.8203-.6328-1.4765-1.4531-1.4765z" style="fill:white"/></svg>