<svg height="64" viewBox="0 0 64 64" width="64" xmlns="http://www.w3.org/2000/svg" xmlns:xlink="http://www.w3.org/1999/xlink"><defs><linearGradient id="a" gradientTransform="matrix(1 0 0 .84587 -1 -272.73)" gradientUnits="userSpaceOnUse" x2="0" y1="392.36" y2="324.66"><stop offset="0" stop-color="#fff" stop-opacity="0"/><stop offset="1" stop-color="#fff" stop-opacity=".2"/></linearGradient><path id="b" d="m3 17v44h58v-44h-18.455z"/></defs><use fill="#777" xlink:href="#b"/><g><path d="m3 60h58v1h-58z" opacity=".35"/><path d="m3 17h58v1h-58z" fill="#fff" opacity=".4"/></g><g fill="#fff"><path d="m32 28.00002a11 11 0 0 0 -11 11 11 11 0 0 0 11 11 11 11 0 0 0 11-11 11 11 0 0 0 -11-11m.14453.95117a10 10 0 0 1 10 10 10 10 0 0 1 -10 10 10 10 0 0 1 -10-10 10 10 0 0 1 10-10" opacity=".75"/><g><path d="m38.38 38.962-10 5.538v-11z" opacity=".75"/><path d="m55 19v4h4v-4zm0 6v4h4v-4zm0 6v4h4v-4zm0 6v4h4v-4zm0 6v4h4v-4zm0 6v4h4v-4zm0 6v4h4v-4z" opacity=".75"/><path d="m5 19v4h4v-4zm0 6v4h4v-4zm0 6v4h4v-4zm0 6v4h4v-4zm0 6v4h4v-4zm0 6v4h4v-4zm0 6v4h4v-4z" opacity=".75"/></g></g><use fill="url(#a)" xlink:href="#b"/></svg>