<svg id="Layer_1" data-name="Layer 1" xmlns="http://www.w3.org/2000/svg" xmlns:xlink="http://www.w3.org/1999/xlink" viewBox="0 0 83.54 75.69"><defs><style>.cls-1,.cls-4{fill:none;}.cls-2{clip-path:url(#clip-path);}.cls-3{fill:#fff;}.cls-4{stroke:#231f20;stroke-miterlimit:10;stroke-width:2px;}.cls-5{fill:#6da341;}</style><clipPath id="clip-path"><rect class="cls-1" x="7.02" y="3.09" width="69.5" height="69.5"/></clipPath></defs><g class="cls-2"><path class="cls-3" d="M75.52,37.84A33.75,33.75,0,1,1,41.77,4.09,33.75,33.75,0,0,1,75.52,37.84"/><circle class="cls-4" cx="41.77" cy="37.84" r="33.75"/><path class="cls-5" d="M38.33,35.91h1.83a5,5,0,0,0,3.59-1.27,4.58,4.58,0,0,0,1.33-3.5c0-2.5-1.39-3.76-4.16-3.76H38.33Zm16.91-4.82q0,6.23-3.67,9.61T41.15,44.09H38.33V56.4h-10V19.28H41.15c4.69,0,8.2,1,10.56,3.08s3.53,5,3.53,8.73"/></g></svg>