<svg id="Layer_1" data-name="Layer 1" xmlns="http://www.w3.org/2000/svg" xmlns:xlink="http://www.w3.org/1999/xlink" viewBox="0 0 83.54 75.69"><defs><style>.cls-1,.cls-4{fill:none;}.cls-2{clip-path:url(#clip-path);}.cls-3{fill:#fff;}.cls-4{stroke:#231f20;stroke-miterlimit:10;stroke-width:2px;}.cls-5{fill:#0f1623;}</style><clipPath id="clip-path"><rect class="cls-1" x="7.02" y="3.09" width="69.5" height="69.5"/></clipPath></defs><g class="cls-2"><path class="cls-3" d="M75.52,37.84A33.75,33.75,0,1,1,41.77,4.09,33.75,33.75,0,0,1,75.52,37.84"/><circle class="cls-4" cx="41.77" cy="37.84" r="33.75"/><path class="cls-5" d="M54.77,45.14A11,11,0,0,1,53,51.28,11.48,11.48,0,0,1,48,55.44a18.72,18.72,0,0,1-7.74,1.49A31.83,31.83,0,0,1,34,56.41a23.33,23.33,0,0,1-5.23-1.82V45.65a29.83,29.83,0,0,0,6,2.3,22.21,22.21,0,0,0,5.68.83A5.52,5.52,0,0,0,43.7,48a2.39,2.39,0,0,0,1-2,2.23,2.23,0,0,0-.42-1.34A5,5,0,0,0,43,43.52q-.93-.59-4.94-2.39a23.46,23.46,0,0,1-5.45-3.2,9.72,9.72,0,0,1-2.69-3.55A11.88,11.88,0,0,1,29,29.63a9.55,9.55,0,0,1,3.73-8Q36.49,18.77,43,18.76a28.79,28.79,0,0,1,11.76,2.67L51.7,29.17a22.27,22.27,0,0,0-9-2.38,4.78,4.78,0,0,0-2.85.68,2.08,2.08,0,0,0-.88,1.7,2.46,2.46,0,0,0,1.12,2,44.81,44.81,0,0,0,6.14,3.15q4.8,2.16,6.66,4.63a10,10,0,0,1,1.87,6.23"/></g></svg>