<svg fill="#003400" xmlns="http://www.w3.org/2000/svg" xmlns:xlink="http://www.w3.org/1999/xlink" version="1.1" x="0px" y="0px" viewBox="0 0 100 100" style="enable-background:new 0 0 100 100;" xml:space="preserve"><g><path d="M49.5,35.3c-2.1,0.4-3.8,2.1-4.2,4.1c-0.7,3.7,2.5,6.9,6.2,6.2c2.1-0.4,3.8-2.1,4.1-4.2C56.5,37.8,53.3,34.6,49.5,35.3z"></path><path d="M63.3,9.1L32,21.1L3,9.5v67.3l29,11.6l32.5-12L97,88V20.7L63.3,9.1z M57.7,55.9c-3.2,4.9-6.4,9.1-6.4,9.1l-0.7,0.9L49.8,65   c0,0-3.2-4.2-6.4-9.1C39.1,49.2,37,44.2,37,41.1c0-1.8,0.4-3.6,1.1-5.3c0.7-1.6,1.7-3.1,2.9-4.3c1.3-1.3,2.7-2.2,4.3-2.9   c1.7-0.7,3.5-1.1,5.3-1.1c1.8,0,3.6,0.4,5.3,1.1c1.6,0.7,3.1,1.7,4.3,2.9c1.3,1.3,2.2,2.7,2.9,4.3c0.7,1.7,1.1,3.5,1.1,5.3   C64.2,44.2,62,49.2,57.7,55.9z"></path></g></svg>