<svg fill="#001A00" xmlns="http://www.w3.org/2000/svg" xmlns:xlink="http://www.w3.org/1999/xlink" version="1.1" x="0px" y="0px" viewBox="0 0 100 100" style="enable-background:new 0 0 100 100;" xml:space="preserve"><metadata><?xpacket begin="&#65279;" id="W5M0MpCehiHzreSzNTczkc9d"?><x:xmpmeta xmlns:x="adobe:ns:meta/" x:xmptk="Adobe XMP Core 5.6-c111 79.158366, 2015/09/25-01:12:00        "></x:xmpmeta><?xpacket end="w"?></metadata><path d="M84.2,68L84.2,68c-9.9-3.8-21.8-2.8-30.5-1.1c3.5-3.8,5.2-7.4,5.1-10.9c-0.2-4.7-3.6-8.5-10.1-11.4l-0.5-0.2l0,0.1  c-8.1-3.5-8.5-5.7-8.5-5.7c0.2-1.2,5.2-3.8,11.3-4.3c0,0,0,0,0,0c0.1,0.1,0.2,0.1,0.3,0.1c2.7,1.4,6.3,1.8,10,1.1  c5.3-1.1,9.4-4.4,10.3-8.1l0.1-0.2l-0.1-0.2c-2.1-3.1-7.2-4.4-12.6-3.4c-1.3,0.2-2.6,0.6-3.7,1.2c0-1.3-0.2-2.5-0.4-3.7  c-1.2-5.3-4.6-9.4-8.3-10.1l-0.2,0l-0.2,0.1c-3,2.3-4.3,7.5-3.1,12.7c0.4,1.7,0.9,3.1,1.6,4.3c-1.3,0.3-2.4,0.7-3.4,1.1  c-4.8,1.9-7.7,4.6-8.3,7.8c-1,5.1,3.2,9.7,12.6,13.5c0.1,0.1,0.3,0.1,0.4,0.2c0.1,0,0.2,0.1,0.3,0.1v0.1l0.3,0.1  c3.3,1.6,5.2,3.4,5.3,5.1c0.2,3.5-5.5,8.4-10.5,11.6c-0.7,0.5-1.3,0.8-1.9,1.2c-9.1-0.2-19,1.2-27.9,4.1c-0.1,0-0.3,0.1-0.3,0.1  l-0.1,0c-0.4,0.1-0.7,0.4-0.8,0.8c-0.2,0.4-0.2,0.8,0,1.2c0,0.1,0.1,0.1,0.1,0.2l-0.6,0.6l0.8-0.3c0.3,0.3,0.7,0.5,1.1,0.5  c0.2,0,0.3,0,0.5-0.1c0,0,0.9-0.3,2.3-0.7c4.2-1.3,12.8-3.4,23.1-3.4h0.4l0.1-0.2c0.2,0,0.4,0,0.6,0l-0.6,0.1h4.1c0.2,0,0.5,0,0.8,0  c0.1,0,0.2,0,0.4,0l0,0l0.4,0c0.2,0.1,0.3,0.1,0.5,0.1l2.7,0.3c6.5,0.9,12.5,2.7,17.9,5.5l-0.4,0l2.3,1.2c0.5,0.3,1,0.6,1.7,1  c0.3,0.2,0.5,0.2,0.7,0.2c0.5,0,1.1-0.3,1.3-0.8c0.2-0.3,0.3-0.7,0.2-1.1c-0.1-0.4-0.3-0.7-0.7-0.9c-5.4-3.4-11.5-5.9-18.3-7.3  c6.6-1.4,16.7-2.9,25.8-1.3l-0.4,0l3.8,0.9c0.9,0.2,1.7,0.5,2.4,0.8c0.7,0.3,1.6-0.1,1.9-0.9C85.3,69.2,84.9,68.3,84.2,68z"></path></svg>