<svg fill="#001A00" xmlns="http://www.w3.org/2000/svg" xmlns:xlink="http://www.w3.org/1999/xlink" version="1.0" x="0px" y="0px" viewBox="0 0 100 100" enable-background="new 0 0 100 100" xml:space="preserve"><path d="M58.0765991,22.8297119c4.8396606,1.0083008,9.5873413-2.1013184,10.5953979-6.9423218  c1.0090942-4.8395386-2.1029053-9.5811157-6.9431763-10.5893555c-4.840271-1.0096436-9.5807495,2.0965576-10.5886841,6.9368286  C50.1308594,17.0754395,53.2357178,21.8215332,58.0765991,22.8297119z"></path><path d="M77.8445435,47.4820557l-1.736084,8.5349121L64.0578003,26.9464722l-9.9533691-2.105957l-7.6931763-1.6265869  l-3.5253296-0.7466431c-0.1099854-0.0222168-0.2189331-0.0310059-0.3291016-0.0513916L30.2723389,83.0108032  c-1.1725464,5.6281738,1.7631836,11.006897,7.3917847,12.1800537l2.1812134-10.1853027l5.1673584-24.7999268l2.9585571,0.6166382  l5.4302979,24.2124634c1.8429565,7.6914673,6.3296509,11.2974243,11.7749023,10.1751709l-8.2605591-33.7161865l4.3953247-21.2614136  l3.9325562,9.7233276l1.6889038,4.2958374c1.4049072,3.4743652,5.0092163,5.2069092,8.5565796,4.6281128L68.1037598,95h3.770813  l9.5808105-46.9671021L77.8445435,47.4820557z"></path><path d="M39.3206177,22.298584c-4.8117065,0.5308228-8.9452515,4.1241455-10.0057983,9.2119141l-3.060791,14.6915894  l-0.9866333,4.5085449c-0.8867188,4.2559204,1.8474121,8.421936,6.0982666,9.3078003L39.3206177,22.298584z"></path></svg>